<svg xmlns="http://www.w3.org/2000/svg" xmlns:xlink="http://www.w3.org/1999/xlink" width="1366" zoomAndPan="magnify" viewBox="0 0 1024.5 576" height="768" preserveAspectRatio="xMidYMid meet" version="1.0"><defs><g/><clipPath id="830f5545c3"><path d="M 505 120 L 674.484375 120 L 674.484375 303 L 505 303 Z M 505 120 " clip-rule="nonzero"/></clipPath><clipPath id="b919b27cd2"><path d="M 453 225 L 631 225 L 631 399.957031 L 453 399.957031 Z M 453 225 " clip-rule="nonzero"/></clipPath><clipPath id="8e58c2d4e5"><path d="M 469 307 L 577 307 L 577 399.957031 L 469 399.957031 Z M 469 307 " clip-rule="nonzero"/></clipPath><clipPath id="52f5c330c2"><path d="M 349.144531 77 L 388 77 L 388 116 L 349.144531 116 Z M 349.144531 77 " clip-rule="nonzero"/></clipPath><clipPath id="11d0869391"><path d="M 428 7.152344 L 452 7.152344 L 452 31 L 428 31 Z M 428 7.152344 " clip-rule="nonzero"/></clipPath></defs><path fill="#f9ed32" d="M 519.949219 61.316406 C 520.644531 61.316406 521.339844 61.28125 522.035156 61.214844 C 522.726562 61.144531 523.417969 61.042969 524.101562 60.90625 C 524.785156 60.773438 525.457031 60.601562 526.125 60.398438 C 526.792969 60.199219 527.449219 59.960938 528.09375 59.695312 C 528.738281 59.429688 529.367188 59.132812 529.980469 58.800781 C 530.59375 58.472656 531.191406 58.117188 531.773438 57.726562 C 532.351562 57.339844 532.910156 56.925781 533.449219 56.484375 C 533.988281 56.039062 534.503906 55.574219 535 55.078125 C 535.492188 54.585938 535.960938 54.070312 536.402344 53.53125 C 536.84375 52.992188 537.257812 52.429688 537.648438 51.851562 C 538.035156 51.273438 538.390625 50.675781 538.722656 50.058594 C 539.050781 49.445312 539.347656 48.8125 539.613281 48.167969 C 539.882812 47.523438 540.117188 46.867188 540.320312 46.199219 C 540.523438 45.535156 540.691406 44.855469 540.828125 44.171875 C 540.964844 43.488281 541.066406 42.800781 541.136719 42.105469 C 541.203125 41.410156 541.238281 40.714844 541.238281 40.015625 C 541.238281 39.320312 541.207031 38.621094 541.136719 37.929688 C 541.070312 37.234375 540.96875 36.542969 540.832031 35.859375 C 540.699219 35.175781 540.53125 34.5 540.328125 33.832031 C 540.125 33.164062 539.890625 32.507812 539.625 31.863281 C 539.359375 31.21875 539.0625 30.585938 538.734375 29.972656 C 538.40625 29.355469 538.046875 28.757812 537.660156 28.175781 C 537.273438 27.597656 536.859375 27.035156 536.417969 26.496094 C 535.976562 25.957031 535.511719 25.441406 535.019531 24.945312 C 534.523438 24.453125 534.011719 23.984375 533.472656 23.539062 C 532.933594 23.097656 532.375 22.683594 531.796875 22.292969 C 531.214844 21.90625 530.621094 21.546875 530.003906 21.21875 C 529.390625 20.886719 528.761719 20.589844 528.117188 20.320312 C 527.472656 20.054688 526.820312 19.816406 526.152344 19.613281 C 525.484375 19.410156 524.808594 19.242188 524.125 19.105469 C 523.441406 18.96875 522.753906 18.863281 522.0625 18.792969 C 521.367188 18.726562 520.671875 18.691406 519.976562 18.6875 C 519.277344 18.6875 518.582031 18.722656 517.890625 18.789062 C 517.195312 18.855469 516.507812 18.957031 515.824219 19.09375 C 515.136719 19.226562 514.460938 19.398438 513.796875 19.597656 C 513.128906 19.800781 512.472656 20.035156 511.828125 20.300781 C 511.183594 20.566406 510.554688 20.863281 509.9375 21.191406 C 509.324219 21.519531 508.726562 21.875 508.144531 22.261719 C 507.566406 22.648438 507.003906 23.0625 506.464844 23.507812 C 505.925781 23.949219 505.410156 24.414062 504.917969 24.90625 C 504.421875 25.402344 503.953125 25.917969 503.511719 26.453125 C 503.066406 26.992188 502.652344 27.550781 502.265625 28.132812 C 501.875 28.710938 501.515625 29.308594 501.1875 29.921875 C 500.859375 30.539062 500.558594 31.167969 500.289062 31.8125 C 500.023438 32.457031 499.789062 33.113281 499.582031 33.78125 C 499.378906 34.445312 499.210938 35.121094 499.074219 35.804688 C 498.933594 36.492188 498.832031 37.179688 498.761719 37.875 C 498.691406 38.570312 498.65625 39.265625 498.65625 39.960938 C 498.65625 40.660156 498.691406 41.359375 498.757812 42.054688 C 498.828125 42.746094 498.929688 43.4375 499.066406 44.125 C 499.199219 44.808594 499.371094 45.484375 499.570312 46.152344 C 499.773438 46.824219 500.007812 47.480469 500.277344 48.125 C 500.542969 48.769531 500.839844 49.402344 501.167969 50.015625 C 501.496094 50.632812 501.855469 51.230469 502.242188 51.8125 C 502.628906 52.394531 503.042969 52.957031 503.488281 53.496094 C 503.929688 54.035156 504.398438 54.554688 504.890625 55.046875 C 505.382812 55.542969 505.898438 56.011719 506.4375 56.453125 C 506.976562 56.898438 507.535156 57.316406 508.117188 57.703125 C 508.695312 58.09375 509.292969 58.453125 509.90625 58.78125 C 510.523438 59.113281 511.152344 59.410156 511.796875 59.679688 C 512.441406 59.949219 513.097656 60.183594 513.765625 60.386719 C 514.429688 60.589844 515.109375 60.761719 515.792969 60.898438 C 516.476562 61.035156 517.164062 61.140625 517.859375 61.210938 C 518.554688 61.28125 519.25 61.316406 519.949219 61.316406 Z M 519.949219 61.316406 " fill-opacity="0.78" fill-rule="evenodd"/><path fill="#662d91" d="M 623.089844 77.75 C 625.96875 81.09375 628.609375 84.613281 631.011719 88.3125 C 633.414062 92.015625 635.554688 95.859375 637.4375 99.851562 C 639.320312 103.839844 640.921875 107.941406 642.25 112.148438 C 643.578125 116.355469 644.617188 120.636719 645.363281 124.984375 C 649.679688 150.25 643.097656 173.640625 647.714844 189.363281 C 648.792969 192.890625 650.242188 196.257812 652.054688 199.46875 C 650.976562 200.09375 649.882812 200.691406 648.769531 201.257812 C 647.65625 201.824219 646.527344 202.355469 645.382812 202.859375 C 644.242188 203.359375 643.085938 203.828125 641.914062 204.261719 C 640.742188 204.695312 639.5625 205.097656 638.367188 205.464844 C 637.175781 205.828125 635.972656 206.160156 634.761719 206.460938 C 633.546875 206.757812 632.328125 207.019531 631.101562 207.246094 C 629.875 207.472656 628.640625 207.667969 627.402344 207.824219 C 626.164062 207.980469 624.921875 208.101562 623.679688 208.1875 C 622.433594 208.273438 621.1875 208.320312 619.9375 208.335938 C 618.691406 208.351562 617.441406 208.328125 616.195312 208.269531 C 614.949219 208.210938 613.703125 208.117188 612.464844 207.988281 C 611.222656 207.859375 609.984375 207.695312 608.753906 207.496094 C 607.519531 207.296875 606.296875 207.058594 605.078125 206.789062 C 603.859375 206.519531 602.648438 206.214844 601.449219 205.875 C 600.246094 205.535156 599.058594 205.160156 597.878906 204.75 C 596.699219 204.34375 595.53125 203.902344 594.375 203.425781 C 593.222656 202.949219 592.082031 202.441406 590.957031 201.902344 C 589.832031 201.359375 588.722656 200.789062 587.632812 200.183594 C 586.539062 199.578125 585.464844 198.945312 584.410156 198.277344 C 583.351562 197.613281 582.316406 196.917969 581.300781 196.191406 C 580.285156 195.464844 579.289062 194.710938 578.316406 193.929688 C 577.34375 193.144531 576.394531 192.335938 575.46875 191.5 C 574.542969 190.660156 573.640625 189.796875 572.761719 188.910156 C 571.886719 188.019531 571.035156 187.109375 570.210938 186.167969 C 569.386719 185.230469 568.589844 184.269531 567.820312 183.289062 C 567.050781 182.304688 566.308594 181.300781 565.597656 180.273438 C 564.882812 179.246094 564.203125 178.199219 563.550781 177.136719 C 562.898438 176.070312 562.277344 174.988281 561.6875 173.886719 C 561.097656 172.785156 560.539062 171.667969 560.011719 170.535156 C 559.484375 169.402344 558.992188 168.253906 558.53125 167.09375 C 558.074219 165.933594 557.644531 164.757812 557.253906 163.574219 C 556.859375 162.386719 556.5 161.191406 556.175781 159.984375 C 555.851562 158.777344 555.5625 157.5625 555.304688 156.339844 C 555.050781 155.117188 554.832031 153.886719 554.648438 152.652344 C 554.460938 151.417969 554.3125 150.175781 554.199219 148.933594 C 554.085938 147.6875 554.007812 146.441406 553.964844 145.195312 C 553.925781 143.945312 553.917969 142.695312 553.949219 141.445312 C 553.976562 140.199219 554.042969 138.949219 554.144531 137.707031 C 554.246094 136.460938 554.382812 135.21875 554.554688 133.980469 C 554.726562 132.742188 554.933594 131.511719 555.175781 130.285156 C 555.417969 129.0625 555.695312 127.84375 556.007812 126.632812 C 556.320312 125.425781 556.667969 124.226562 557.046875 123.035156 C 557.429688 121.84375 557.84375 120.667969 558.292969 119.5 C 558.742188 118.335938 559.222656 117.183594 559.738281 116.046875 C 560.25 114.90625 560.796875 113.785156 561.378906 112.675781 C 561.957031 111.570312 562.566406 110.480469 563.207031 109.410156 C 563.847656 108.335938 564.519531 107.285156 565.222656 106.253906 C 565.925781 105.21875 566.65625 104.207031 567.414062 103.214844 C 568.175781 102.222656 568.960938 101.253906 569.777344 100.308594 C 570.59375 99.363281 571.433594 98.441406 572.300781 97.542969 C 573.167969 96.644531 574.0625 95.773438 574.980469 94.925781 C 575.898438 94.082031 576.839844 93.261719 577.804688 92.46875 C 578.769531 91.675781 579.757812 90.910156 580.765625 90.175781 C 581.773438 89.441406 582.804688 88.734375 583.851562 88.058594 C 584.902344 87.378906 585.96875 86.734375 587.054688 86.117188 C 588.140625 85.503906 589.246094 84.917969 590.363281 84.367188 C 591.484375 83.816406 592.617188 83.296875 593.769531 82.808594 C 594.917969 82.320312 596.078125 81.867188 597.253906 81.449219 C 598.429688 81.027344 599.617188 80.640625 600.8125 80.289062 C 602.011719 79.9375 603.21875 79.621094 604.433594 79.335938 C 605.648438 79.054688 606.871094 78.804688 608.101562 78.59375 C 609.332031 78.382812 610.566406 78.203125 611.808594 78.0625 C 613.046875 77.921875 614.289062 77.816406 615.535156 77.746094 C 616.78125 77.675781 618.03125 77.640625 619.277344 77.640625 C 620.507812 77.640625 621.804688 77.683594 623.089844 77.75 Z M 623.089844 77.75 " fill-opacity="0.78" fill-rule="evenodd"/><g clip-path="url(#830f5545c3)"><path fill="#92278f" d="M 646.632812 136.101562 C 648 157.03125 643.78125 175.980469 647.714844 189.417969 C 654.445312 212.371094 684.289062 233.167969 670.34375 244.980469 C 665.933594 248.519531 658.339844 248.753906 653.886719 252.226562 C 646.796875 257.761719 651.644531 263.75 652.273438 268.070312 C 652.574219 270.121094 650.71875 273.414062 644.585938 277.421875 C 649.214844 280.839844 648.792969 283.738281 647.140625 286.402344 C 644.882812 287.953125 642.5625 289.394531 640.175781 290.734375 C 637.789062 292.074219 635.34375 293.300781 632.847656 294.417969 C 630.347656 295.535156 627.804688 296.539062 625.21875 297.425781 C 622.628906 298.3125 620.007812 299.082031 617.347656 299.730469 C 614.691406 300.378906 612.007812 300.910156 609.304688 301.316406 C 606.597656 301.722656 603.878906 302.007812 601.148438 302.167969 C 598.417969 302.328125 595.683594 302.367188 592.949219 302.28125 C 590.214844 302.195312 587.492188 301.984375 584.777344 301.652344 C 582.058594 301.320312 579.363281 300.863281 576.691406 300.289062 C 574.015625 299.710938 571.371094 299.015625 568.761719 298.199219 C 566.148438 297.382812 563.582031 296.449219 561.050781 295.402344 C 558.523438 294.351562 556.050781 293.191406 553.628906 291.921875 C 551.203125 290.648438 548.84375 289.269531 546.546875 287.78125 C 544.25 286.296875 542.023438 284.710938 539.867188 283.019531 C 537.714844 281.332031 535.640625 279.550781 533.644531 277.675781 C 531.652344 275.800781 529.746094 273.839844 527.929688 271.792969 C 526.113281 269.746094 524.390625 267.617188 522.765625 265.414062 C 521.144531 263.210938 519.621094 260.9375 518.203125 258.597656 C 516.78125 256.257812 515.472656 253.855469 514.269531 251.394531 C 513.066406 248.9375 511.976562 246.425781 511 243.867188 C 510.023438 241.308594 509.164062 238.714844 508.425781 236.078125 C 507.683594 233.441406 507.0625 230.777344 506.5625 228.082031 C 506.0625 225.390625 505.683594 222.683594 505.425781 219.957031 C 505.171875 217.226562 505.039062 214.496094 505.027344 211.757812 C 505.019531 209.019531 505.132812 206.285156 505.371094 203.558594 C 505.609375 200.828125 505.96875 198.117188 506.453125 195.421875 C 506.933594 192.726562 507.539062 190.054688 508.261719 187.414062 C 508.984375 184.773438 509.824219 182.171875 510.785156 179.605469 C 511.742188 177.042969 512.816406 174.523438 514 172.058594 C 515.1875 169.589844 516.480469 167.179688 517.886719 164.828125 C 519.289062 162.476562 520.796875 160.195312 522.40625 157.980469 C 524.015625 155.765625 525.722656 153.628906 527.523438 151.570312 C 529.328125 149.507812 531.21875 147.535156 533.199219 145.644531 C 535.183594 143.757812 537.246094 141.960938 539.386719 140.261719 C 541.53125 138.558594 543.746094 136.957031 546.035156 135.453125 C 548.324219 133.953125 550.671875 132.558594 553.085938 131.269531 C 555.5 129.980469 557.96875 128.800781 560.488281 127.738281 C 563.007812 126.671875 565.574219 125.722656 568.179688 124.886719 C 570.785156 124.054688 573.421875 123.339844 576.09375 122.746094 C 578.765625 122.152344 581.457031 121.679688 584.167969 121.328125 C 586.882812 120.976562 589.605469 120.75 592.339844 120.644531 C 595.074219 120.539062 597.808594 120.558594 600.539062 120.699219 C 603.269531 120.84375 605.992188 121.109375 608.699219 121.496094 C 611.40625 121.886719 614.09375 122.398438 616.753906 123.027344 C 619.417969 123.660156 622.042969 124.410156 624.640625 125.28125 C 627.234375 126.152344 629.78125 127.136719 632.289062 128.238281 C 634.792969 129.335938 637.242188 130.550781 639.640625 131.871094 C 642.035156 133.195312 644.367188 134.621094 646.632812 136.15625 Z M 646.632812 136.101562 " fill-opacity="0.78" fill-rule="evenodd"/></g><g clip-path="url(#b919b27cd2)"><path fill="#007fc6" d="M 627.199219 336.90625 C 592.714844 350.960938 546.550781 303.820312 540.339844 399.957031 C 517.917969 385.222656 494.160156 373.117188 469.058594 363.648438 C 468.027344 362.125 467.039062 360.570312 466.105469 358.988281 C 465.167969 357.402344 464.28125 355.792969 463.445312 354.152344 C 462.605469 352.515625 461.824219 350.851562 461.089844 349.160156 C 460.359375 347.472656 459.679688 345.761719 459.054688 344.03125 C 458.429688 342.300781 457.859375 340.550781 457.339844 338.785156 C 456.824219 337.019531 456.363281 335.238281 455.960938 333.441406 C 455.554688 331.644531 455.207031 329.839844 454.914062 328.023438 C 454.621094 326.203125 454.386719 324.378906 454.207031 322.546875 C 454.03125 320.714844 453.910156 318.878906 453.847656 317.039062 C 453.78125 315.199219 453.777344 313.359375 453.828125 311.519531 C 453.878906 309.679688 453.988281 307.84375 454.15625 306.007812 C 454.320312 304.175781 454.542969 302.351562 454.824219 300.53125 C 455.105469 298.710938 455.441406 296.902344 455.835938 295.105469 C 456.230469 293.304688 456.679688 291.523438 457.183594 289.753906 C 457.6875 287.980469 458.246094 286.230469 458.863281 284.496094 C 459.476562 282.757812 460.144531 281.046875 460.867188 279.351562 C 461.585938 277.660156 462.359375 275.988281 463.1875 274.34375 C 464.011719 272.699219 464.886719 271.082031 465.816406 269.492188 C 466.742188 267.902344 467.71875 266.34375 468.742188 264.8125 C 469.765625 263.285156 470.835938 261.789062 471.953125 260.328125 C 473.070312 258.867188 474.234375 257.441406 475.441406 256.050781 C 476.648438 254.664062 477.894531 253.3125 479.1875 252 C 480.476562 250.691406 481.808594 249.421875 483.179688 248.195312 C 484.550781 246.964844 485.957031 245.78125 487.402344 244.644531 C 488.84375 243.503906 490.324219 242.410156 491.835938 241.363281 C 493.347656 240.316406 494.890625 239.316406 496.46875 238.367188 C 498.042969 237.417969 499.644531 236.515625 501.277344 235.667969 C 502.90625 234.816406 504.5625 234.019531 506.246094 233.273438 C 507.925781 232.527344 509.628906 231.832031 511.351562 231.195312 C 513.078125 230.554688 514.820312 229.96875 516.582031 229.4375 C 518.339844 228.90625 520.117188 228.433594 521.90625 228.011719 C 523.699219 227.59375 525.5 227.230469 527.3125 226.925781 C 529.125 226.617188 530.949219 226.367188 532.777344 226.175781 C 534.605469 225.984375 536.4375 225.847656 538.277344 225.769531 C 540.113281 225.691406 541.949219 225.671875 543.789062 225.710938 C 545.628906 225.746094 547.464844 225.839844 549.296875 225.992188 C 551.128906 226.144531 552.957031 226.355469 554.773438 226.621094 C 556.59375 226.886719 558.402344 227.210938 560.203125 227.589844 C 562.003906 227.96875 563.789062 228.40625 565.5625 228.898438 C 567.332031 229.386719 569.085938 229.933594 570.824219 230.535156 C 572.5625 231.136719 574.28125 231.792969 575.980469 232.5 C 577.675781 233.210938 579.347656 233.972656 581 234.785156 C 582.648438 235.597656 584.269531 236.464844 585.867188 237.378906 C 587.460938 238.292969 589.027344 239.257812 590.5625 240.273438 C 592.097656 241.285156 593.601562 242.34375 595.070312 243.453125 C 596.539062 244.558594 597.972656 245.710938 599.367188 246.910156 C 600.765625 248.105469 602.125 249.34375 603.441406 250.628906 C 604.761719 251.910156 606.042969 253.230469 607.277344 254.59375 C 608.515625 255.957031 609.707031 257.355469 610.859375 258.792969 C 612.007812 260.230469 613.113281 261.699219 614.167969 263.207031 C 615.226562 264.710938 616.238281 266.25 617.199219 267.816406 C 618.160156 269.386719 619.070312 270.984375 619.933594 272.609375 C 620.796875 274.238281 621.605469 275.886719 622.363281 277.566406 C 623.121094 279.242188 623.828125 280.941406 624.480469 282.664062 C 625.132812 284.382812 625.730469 286.125 626.273438 287.882812 C 626.820312 289.640625 627.308594 291.414062 627.742188 293.203125 C 628.171875 294.992188 628.550781 296.792969 628.871094 298.605469 C 629.191406 300.417969 629.453125 302.238281 629.660156 304.066406 C 629.867188 305.898438 630.015625 307.730469 630.109375 309.570312 C 630.203125 311.410156 630.238281 313.246094 630.214844 315.089844 C 630.191406 316.929688 630.109375 318.765625 629.972656 320.601562 C 629.835938 322.4375 629.640625 324.269531 629.390625 326.09375 C 629.136719 327.914062 628.828125 329.730469 628.464844 331.535156 C 628.097656 333.335938 627.675781 335.128906 627.199219 336.90625 Z M 627.199219 336.90625 " fill-opacity="0.78" fill-rule="evenodd"/></g><g clip-path="url(#8e58c2d4e5)"><path fill="#01a6e6" d="M 576.570312 337.398438 C 558.351562 338.164062 543.65625 348.664062 540.339844 399.957031 C 518.042969 385.308594 494.425781 373.253906 469.484375 363.796875 C 469.519531 362.242188 469.621094 360.691406 469.785156 359.140625 C 469.949219 357.59375 470.175781 356.054688 470.464844 354.523438 C 470.753906 352.996094 471.105469 351.480469 471.515625 349.980469 C 471.929688 348.480469 472.402344 346.996094 472.933594 345.535156 C 473.46875 344.074219 474.0625 342.636719 474.710938 341.222656 C 475.363281 339.808594 476.070312 338.421875 476.832031 337.066406 C 477.597656 335.710938 478.414062 334.386719 479.285156 333.097656 C 480.160156 331.808594 481.082031 330.558594 482.054688 329.34375 C 483.027344 328.132812 484.050781 326.960938 485.117188 325.828125 C 486.1875 324.699219 487.300781 323.613281 488.460938 322.574219 C 489.617188 321.535156 490.816406 320.546875 492.054688 319.605469 C 493.292969 318.664062 494.566406 317.773438 495.878906 316.9375 C 497.1875 316.097656 498.53125 315.316406 499.90625 314.589844 C 501.28125 313.863281 502.683594 313.191406 504.113281 312.578125 C 505.542969 311.964844 506.996094 311.414062 508.46875 310.917969 C 509.945312 310.421875 511.4375 309.992188 512.945312 309.617188 C 514.457031 309.246094 515.976562 308.9375 517.511719 308.6875 C 519.046875 308.441406 520.589844 308.253906 522.140625 308.132812 C 523.691406 308.011719 525.246094 307.953125 526.800781 307.960938 C 528.355469 307.964844 529.90625 308.03125 531.457031 308.164062 C 533.003906 308.296875 534.546875 308.492188 536.082031 308.75 C 537.613281 309.007812 539.136719 309.328125 540.640625 309.710938 C 542.148438 310.09375 543.640625 310.535156 545.109375 311.039062 C 546.582031 311.542969 548.03125 312.105469 549.457031 312.730469 C 550.878906 313.351562 552.277344 314.03125 553.648438 314.765625 C 555.019531 315.503906 556.355469 316.296875 557.660156 317.140625 C 558.964844 317.988281 560.234375 318.886719 561.46875 319.835938 C 562.699219 320.785156 563.890625 321.78125 565.042969 322.828125 C 566.191406 323.875 567.300781 324.96875 568.359375 326.105469 C 569.421875 327.242188 570.4375 328.421875 571.402344 329.640625 C 572.367188 330.863281 573.28125 332.121094 574.144531 333.414062 C 575.007812 334.710938 575.816406 336.039062 576.570312 337.398438 Z M 576.570312 337.398438 " fill-opacity="0.78" fill-rule="evenodd"/></g><path fill="#2063b2" d="M 659.894531 249.285156 C 657.730469 249.914062 655.730469 250.875 653.886719 252.171875 C 646.796875 257.707031 651.644531 263.695312 652.273438 268.015625 C 652.574219 270.066406 650.71875 273.359375 644.585938 277.367188 C 651.671875 282.601562 646.90625 286.609375 644.054688 290.464844 C 630.792969 300.035156 649.242188 320.773438 627.363281 336.851562 C 605.28125 345.957031 578.429688 329.894531 560.292969 342.222656 C 560.003906 340.566406 559.769531 338.898438 559.585938 337.226562 C 559.398438 335.554688 559.265625 333.875 559.1875 332.195312 C 559.105469 330.511719 559.078125 328.832031 559.101562 327.148438 C 559.125 325.464844 559.203125 323.785156 559.332031 322.105469 C 559.457031 320.425781 559.636719 318.753906 559.871094 317.085938 C 560.101562 315.417969 560.386719 313.761719 560.71875 312.109375 C 561.054688 310.460938 561.4375 308.824219 561.875 307.195312 C 562.3125 305.570312 562.796875 303.960938 563.332031 302.363281 C 563.867188 300.769531 564.453125 299.191406 565.085938 297.632812 C 565.71875 296.074219 566.402344 294.535156 567.128906 293.015625 C 567.859375 291.5 568.632812 290.007812 569.457031 288.539062 C 570.277344 287.070312 571.144531 285.628906 572.054688 284.210938 C 572.964844 282.796875 573.917969 281.410156 574.914062 280.054688 C 575.910156 278.699219 576.949219 277.375 578.027344 276.085938 C 579.105469 274.792969 580.222656 273.535156 581.382812 272.3125 C 582.539062 271.09375 583.730469 269.90625 584.960938 268.757812 C 586.191406 267.609375 587.457031 266.503906 588.753906 265.433594 C 590.050781 264.363281 591.382812 263.335938 592.746094 262.347656 C 594.109375 261.359375 595.5 260.417969 596.921875 259.515625 C 598.339844 258.617188 599.789062 257.761719 601.261719 256.949219 C 602.738281 256.140625 604.234375 255.375 605.753906 254.660156 C 607.277344 253.941406 608.820312 253.269531 610.382812 252.648438 C 611.945312 252.027344 613.523438 251.453125 615.121094 250.929688 C 616.722656 250.40625 618.332031 249.933594 619.960938 249.511719 C 621.589844 249.085938 623.226562 248.714844 624.878906 248.390625 C 626.53125 248.070312 628.1875 247.800781 629.855469 247.582031 C 631.523438 247.363281 633.195312 247.195312 634.875 247.082031 C 636.550781 246.964844 638.230469 246.902344 639.914062 246.890625 C 641.59375 246.882812 643.273438 246.921875 644.953125 247.015625 C 646.632812 247.109375 648.308594 247.257812 649.976562 247.453125 C 651.648438 247.652344 653.308594 247.902344 654.964844 248.203125 C 656.617188 248.503906 658.261719 248.855469 659.894531 249.257812 Z M 659.894531 249.285156 " fill-opacity="0.78" fill-rule="evenodd"/><path fill="#12bcbc" d="M 403.4375 250.3125 C 404.46875 250.3125 405.5 250.261719 406.527344 250.160156 C 407.554688 250.058594 408.578125 249.910156 409.589844 249.707031 C 410.601562 249.503906 411.605469 249.253906 412.59375 248.957031 C 413.582031 248.65625 414.550781 248.308594 415.507812 247.914062 C 416.460938 247.515625 417.394531 247.074219 418.304688 246.589844 C 419.21875 246.101562 420.101562 245.570312 420.960938 244.996094 C 421.820312 244.421875 422.648438 243.808594 423.449219 243.152344 C 424.246094 242.496094 425.011719 241.800781 425.742188 241.070312 C 426.472656 240.339844 427.164062 239.574219 427.820312 238.777344 C 428.476562 237.976562 429.089844 237.148438 429.664062 236.289062 C 430.238281 235.429688 430.769531 234.542969 431.257812 233.632812 C 431.746094 232.71875 432.1875 231.785156 432.582031 230.832031 C 432.976562 229.875 433.324219 228.902344 433.625 227.914062 C 433.925781 226.925781 434.175781 225.921875 434.378906 224.90625 C 434.578125 223.894531 434.730469 222.871094 434.832031 221.84375 C 434.933594 220.8125 434.984375 219.78125 434.984375 218.75 C 434.984375 217.714844 434.933594 216.683594 434.832031 215.652344 C 434.730469 214.625 434.582031 213.601562 434.378906 212.589844 C 434.179688 211.574219 433.925781 210.574219 433.628906 209.582031 C 433.328125 208.59375 432.980469 207.621094 432.585938 206.664062 C 432.191406 205.710938 431.75 204.777344 431.261719 203.863281 C 430.773438 202.953125 430.246094 202.066406 429.671875 201.207031 C 429.097656 200.347656 428.480469 199.515625 427.828125 198.71875 C 427.171875 197.917969 426.480469 197.152344 425.75 196.421875 C 425.019531 195.691406 424.253906 194.996094 423.453125 194.339844 C 422.65625 193.683594 421.828125 193.070312 420.96875 192.496094 C 420.109375 191.921875 419.226562 191.390625 418.3125 190.902344 C 417.402344 190.414062 416.46875 189.972656 415.515625 189.578125 C 414.5625 189.183594 413.589844 188.835938 412.601562 188.535156 C 411.613281 188.234375 410.613281 187.984375 409.597656 187.78125 C 408.585938 187.582031 407.566406 187.429688 406.535156 187.328125 C 405.507812 187.226562 404.476562 187.175781 403.445312 187.175781 C 402.414062 187.175781 401.382812 187.226562 400.355469 187.328125 C 399.324219 187.429688 398.304688 187.582031 397.292969 187.785156 C 396.277344 187.984375 395.277344 188.238281 394.289062 188.539062 C 393.300781 188.835938 392.328125 189.1875 391.375 189.582031 C 390.421875 189.976562 389.488281 190.417969 388.578125 190.90625 C 387.667969 191.394531 386.78125 191.925781 385.921875 192.5 C 385.0625 193.074219 384.234375 193.691406 383.4375 194.347656 C 382.640625 195.003906 381.875 195.699219 381.144531 196.429688 C 380.414062 197.160156 379.722656 197.925781 379.066406 198.726562 C 378.410156 199.523438 377.796875 200.355469 377.222656 201.214844 C 376.648438 202.074219 376.121094 202.960938 375.632812 203.871094 C 375.148438 204.785156 374.707031 205.71875 374.3125 206.675781 C 373.914062 207.628906 373.570312 208.601562 373.269531 209.589844 C 372.96875 210.582031 372.71875 211.582031 372.519531 212.597656 C 372.316406 213.613281 372.167969 214.632812 372.066406 215.664062 C 371.964844 216.691406 371.914062 217.722656 371.914062 218.757812 C 371.917969 219.789062 371.96875 220.820312 372.074219 221.847656 C 372.175781 222.875 372.328125 223.894531 372.53125 224.910156 C 372.734375 225.921875 372.988281 226.921875 373.289062 227.910156 C 373.589844 228.898438 373.9375 229.867188 374.332031 230.820312 C 374.726562 231.777344 375.167969 232.707031 375.65625 233.617188 C 376.144531 234.527344 376.675781 235.414062 377.246094 236.273438 C 377.820312 237.128906 378.4375 237.957031 379.089844 238.757812 C 379.746094 239.554688 380.4375 240.320312 381.167969 241.050781 C 381.898438 241.78125 382.660156 242.472656 383.457031 243.128906 C 384.253906 243.785156 385.082031 244.398438 385.941406 244.972656 C 386.796875 245.546875 387.679688 246.078125 388.589844 246.566406 C 389.5 247.054688 390.429688 247.496094 391.382812 247.890625 C 392.335938 248.289062 393.304688 248.636719 394.292969 248.9375 C 395.28125 249.238281 396.28125 249.492188 397.292969 249.695312 C 398.304688 249.898438 399.320312 250.050781 400.347656 250.152344 C 401.375 250.257812 402.40625 250.308594 403.4375 250.3125 Z M 403.4375 250.3125 " fill-opacity="0.78" fill-rule="evenodd"/><path fill="#00b9f1" d="M 469.484375 294.25 C 470.425781 294.253906 471.367188 294.210938 472.304688 294.121094 C 473.242188 294.03125 474.175781 293.894531 475.101562 293.714844 C 476.023438 293.53125 476.9375 293.304688 477.839844 293.035156 C 478.742188 292.761719 479.632812 292.445312 480.503906 292.089844 C 481.375 291.730469 482.226562 291.328125 483.058594 290.886719 C 483.890625 290.445312 484.699219 289.960938 485.484375 289.4375 C 486.269531 288.917969 487.027344 288.355469 487.757812 287.761719 C 488.488281 287.164062 489.1875 286.53125 489.855469 285.867188 C 490.523438 285.199219 491.15625 284.503906 491.757812 283.777344 C 492.355469 283.046875 492.917969 282.292969 493.445312 281.507812 C 493.96875 280.726562 494.457031 279.917969 494.902344 279.085938 C 495.347656 278.257812 495.753906 277.40625 496.113281 276.535156 C 496.476562 275.664062 496.796875 274.777344 497.070312 273.875 C 497.347656 272.972656 497.578125 272.058594 497.765625 271.132812 C 497.949219 270.207031 498.089844 269.277344 498.183594 268.335938 C 498.277344 267.398438 498.324219 266.457031 498.328125 265.515625 C 498.328125 264.570312 498.285156 263.628906 498.195312 262.691406 C 498.105469 261.75 497.96875 260.816406 497.785156 259.890625 C 497.601562 258.964844 497.375 258.050781 497.105469 257.148438 C 496.832031 256.246094 496.515625 255.359375 496.15625 254.484375 C 495.796875 253.613281 495.394531 252.761719 494.953125 251.925781 C 494.511719 251.09375 494.027344 250.285156 493.503906 249.5 C 492.984375 248.714844 492.421875 247.957031 491.828125 247.226562 C 491.230469 246.496094 490.597656 245.796875 489.933594 245.128906 C 489.265625 244.460938 488.570312 243.828125 487.84375 243.226562 C 487.113281 242.628906 486.359375 242.066406 485.578125 241.539062 C 484.792969 241.015625 483.988281 240.53125 483.15625 240.082031 C 482.324219 239.636719 481.472656 239.234375 480.605469 238.871094 C 479.734375 238.511719 478.847656 238.191406 477.945312 237.917969 C 477.042969 237.640625 476.132812 237.410156 475.207031 237.226562 C 474.28125 237.042969 473.351562 236.902344 472.414062 236.808594 C 471.476562 236.714844 470.535156 236.667969 469.59375 236.667969 C 468.648438 236.667969 467.710938 236.710938 466.773438 236.804688 C 465.832031 236.894531 464.902344 237.03125 463.976562 237.214844 C 463.054688 237.398438 462.140625 237.628906 461.238281 237.902344 C 460.335938 238.171875 459.449219 238.492188 458.578125 238.851562 C 457.707031 239.210938 456.855469 239.613281 456.023438 240.058594 C 455.191406 240.503906 454.382812 240.984375 453.601562 241.511719 C 452.816406 242.035156 452.058594 242.59375 451.332031 243.191406 C 450.601562 243.792969 449.902344 244.421875 449.238281 245.089844 C 448.570312 245.757812 447.9375 246.457031 447.339844 247.183594 C 446.742188 247.914062 446.179688 248.671875 445.65625 249.453125 C 445.132812 250.238281 444.648438 251.046875 444.203125 251.878906 C 443.757812 252.710938 443.355469 253.5625 442.996094 254.433594 C 442.632812 255.304688 442.316406 256.195312 442.042969 257.097656 C 441.769531 258 441.539062 258.914062 441.355469 259.839844 C 441.171875 260.765625 441.035156 261.695312 440.941406 262.636719 C 440.847656 263.574219 440.804688 264.515625 440.804688 265.460938 C 440.804688 266.398438 440.851562 267.339844 440.945312 268.273438 C 441.039062 269.210938 441.179688 270.140625 441.363281 271.0625 C 441.546875 271.984375 441.777344 272.894531 442.050781 273.796875 C 442.324219 274.695312 442.640625 275.582031 443 276.449219 C 443.359375 277.320312 443.761719 278.167969 444.203125 279 C 444.644531 279.828125 445.128906 280.632812 445.648438 281.417969 C 446.171875 282.199219 446.730469 282.953125 447.324219 283.683594 C 447.921875 284.410156 448.550781 285.105469 449.214844 285.773438 C 449.878906 286.441406 450.570312 287.070312 451.296875 287.667969 C 452.023438 288.269531 452.777344 288.828125 453.554688 289.355469 C 454.335938 289.878906 455.140625 290.363281 455.96875 290.808594 C 456.796875 291.253906 457.644531 291.660156 458.511719 292.023438 C 459.378906 292.382812 460.261719 292.703125 461.160156 292.980469 C 462.058594 293.257812 462.964844 293.488281 463.886719 293.675781 C 464.808594 293.863281 465.738281 294.003906 466.671875 294.101562 C 467.605469 294.195312 468.542969 294.246094 469.484375 294.25 Z M 469.484375 294.25 " fill-opacity="0.78" fill-rule="evenodd"/><path fill="#8dc63f" d="M 398.902344 173.492188 C 399.625 173.492188 400.347656 173.457031 401.066406 173.382812 C 401.789062 173.3125 402.503906 173.207031 403.214844 173.066406 C 403.921875 172.925781 404.625 172.75 405.316406 172.539062 C 406.011719 172.328125 406.691406 172.085938 407.359375 171.808594 C 408.027344 171.53125 408.679688 171.21875 409.320312 170.878906 C 409.957031 170.535156 410.578125 170.164062 411.179688 169.761719 C 411.78125 169.359375 412.363281 168.929688 412.921875 168.46875 C 413.480469 168.007812 414.015625 167.523438 414.527344 167.011719 C 415.039062 166.5 415.527344 165.960938 415.984375 165.402344 C 416.445312 164.839844 416.875 164.261719 417.277344 163.65625 C 417.679688 163.054688 418.050781 162.433594 418.390625 161.796875 C 418.734375 161.15625 419.042969 160.503906 419.320312 159.832031 C 419.59375 159.164062 419.839844 158.480469 420.050781 157.789062 C 420.257812 157.09375 420.433594 156.394531 420.574219 155.683594 C 420.71875 154.972656 420.824219 154.253906 420.894531 153.535156 C 420.964844 152.8125 421 152.089844 421 151.367188 C 421 150.640625 420.964844 149.917969 420.894531 149.199219 C 420.820312 148.476562 420.714844 147.761719 420.574219 147.050781 C 420.433594 146.339844 420.257812 145.636719 420.046875 144.945312 C 419.835938 144.25 419.59375 143.570312 419.316406 142.902344 C 419.039062 142.230469 418.730469 141.578125 418.386719 140.9375 C 418.046875 140.300781 417.675781 139.679688 417.273438 139.078125 C 416.871094 138.472656 416.4375 137.894531 415.980469 137.332031 C 415.519531 136.773438 415.035156 136.238281 414.523438 135.722656 C 414.011719 135.210938 413.476562 134.726562 412.914062 134.265625 C 412.355469 133.808594 411.773438 133.375 411.171875 132.972656 C 410.570312 132.570312 409.949219 132.199219 409.3125 131.859375 C 408.671875 131.515625 408.019531 131.207031 407.351562 130.929688 C 406.683594 130.652344 406 130.410156 405.308594 130.199219 C 404.617188 129.992188 403.914062 129.816406 403.203125 129.671875 C 402.496094 129.53125 401.78125 129.425781 401.058594 129.355469 C 400.339844 129.285156 399.617188 129.25 398.894531 129.25 C 398.167969 129.25 397.445312 129.285156 396.726562 129.359375 C 396.007812 129.429688 395.292969 129.535156 394.582031 129.675781 C 393.871094 129.820312 393.171875 129.996094 392.476562 130.207031 C 391.785156 130.417969 391.105469 130.660156 390.4375 130.9375 C 389.765625 131.214844 389.113281 131.527344 388.476562 131.867188 C 387.835938 132.210938 387.21875 132.582031 386.617188 132.984375 C 386.015625 133.386719 385.433594 133.820312 384.875 134.277344 C 384.316406 134.738281 383.78125 135.226562 383.269531 135.738281 C 382.757812 136.25 382.273438 136.785156 381.8125 137.347656 C 381.355469 137.90625 380.921875 138.488281 380.523438 139.089844 C 380.121094 139.695312 379.75 140.316406 379.40625 140.953125 C 379.066406 141.59375 378.757812 142.246094 378.480469 142.917969 C 378.203125 143.585938 377.960938 144.269531 377.75 144.960938 C 377.542969 145.65625 377.367188 146.359375 377.226562 147.066406 C 377.085938 147.777344 376.980469 148.496094 376.910156 149.214844 C 376.839844 149.9375 376.804688 150.660156 376.804688 151.382812 C 376.804688 152.109375 376.84375 152.832031 376.914062 153.550781 C 376.984375 154.269531 377.09375 154.988281 377.234375 155.695312 C 377.378906 156.40625 377.554688 157.105469 377.765625 157.800781 C 377.976562 158.492188 378.21875 159.171875 378.496094 159.839844 C 378.773438 160.507812 379.085938 161.164062 379.425781 161.800781 C 379.765625 162.4375 380.140625 163.058594 380.542969 163.660156 C 380.945312 164.261719 381.375 164.84375 381.832031 165.402344 C 382.292969 165.960938 382.777344 166.496094 383.289062 167.007812 C 383.800781 167.519531 384.335938 168.007812 384.894531 168.464844 C 385.453125 168.925781 386.035156 169.355469 386.636719 169.757812 C 387.238281 170.160156 387.855469 170.53125 388.496094 170.875 C 389.132812 171.214844 389.785156 171.523438 390.453125 171.800781 C 391.121094 172.078125 391.800781 172.324219 392.492188 172.535156 C 393.183594 172.742188 393.886719 172.921875 394.59375 173.0625 C 395.304688 173.203125 396.019531 173.3125 396.738281 173.382812 C 397.457031 173.453125 398.179688 173.492188 398.902344 173.492188 Z M 398.902344 173.492188 " fill-opacity="0.78" fill-rule="evenodd"/><g clip-path="url(#52f5c330c2)"><path fill="#ffd900" d="M 387.878906 96.410156 C 387.878906 97.039062 387.847656 97.664062 387.789062 98.289062 C 387.726562 98.914062 387.636719 99.53125 387.511719 100.148438 C 387.390625 100.761719 387.238281 101.371094 387.054688 101.972656 C 386.875 102.570312 386.664062 103.160156 386.421875 103.742188 C 386.183594 104.320312 385.917969 104.886719 385.621094 105.441406 C 385.324219 105.992188 385.003906 106.53125 384.65625 107.054688 C 384.308594 107.574219 383.933594 108.078125 383.535156 108.5625 C 383.140625 109.046875 382.71875 109.511719 382.277344 109.957031 C 381.832031 110.398438 381.367188 110.820312 380.882812 111.21875 C 380.398438 111.617188 379.898438 111.988281 379.375 112.335938 C 378.855469 112.6875 378.320312 113.007812 377.765625 113.304688 C 377.214844 113.597656 376.648438 113.867188 376.070312 114.105469 C 375.488281 114.347656 374.898438 114.558594 374.300781 114.742188 C 373.699219 114.921875 373.09375 115.074219 372.480469 115.199219 C 371.863281 115.320312 371.246094 115.410156 370.621094 115.472656 C 369.996094 115.535156 369.371094 115.566406 368.746094 115.566406 C 368.121094 115.566406 367.496094 115.535156 366.871094 115.472656 C 366.246094 115.410156 365.628906 115.320312 365.011719 115.195312 C 364.398438 115.074219 363.792969 114.921875 363.191406 114.742188 C 362.59375 114.558594 362.003906 114.347656 361.425781 114.105469 C 360.84375 113.867188 360.277344 113.597656 359.726562 113.304688 C 359.171875 113.007812 358.636719 112.6875 358.117188 112.335938 C 357.59375 111.988281 357.09375 111.617188 356.609375 111.21875 C 356.125 110.820312 355.660156 110.398438 355.214844 109.957031 C 354.773438 109.511719 354.351562 109.046875 353.957031 108.5625 C 353.558594 108.078125 353.183594 107.574219 352.835938 107.054688 C 352.488281 106.53125 352.167969 105.992188 351.871094 105.441406 C 351.574219 104.886719 351.308594 104.320312 351.070312 103.742188 C 350.828125 103.160156 350.617188 102.570312 350.4375 101.972656 C 350.253906 101.371094 350.101562 100.761719 349.980469 100.148438 C 349.859375 99.53125 349.765625 98.914062 349.703125 98.289062 C 349.644531 97.664062 349.613281 97.039062 349.613281 96.410156 C 349.613281 95.785156 349.644531 95.160156 349.703125 94.535156 C 349.765625 93.910156 349.859375 93.289062 349.980469 92.675781 C 350.101562 92.058594 350.253906 91.453125 350.4375 90.851562 C 350.617188 90.25 350.828125 89.660156 351.070312 89.082031 C 351.308594 88.503906 351.574219 87.9375 351.871094 87.382812 C 352.167969 86.828125 352.488281 86.292969 352.835938 85.769531 C 353.183594 85.25 353.558594 84.746094 353.957031 84.261719 C 354.351562 83.777344 354.773438 83.3125 355.214844 82.867188 C 355.660156 82.425781 356.125 82.003906 356.609375 81.605469 C 357.09375 81.207031 357.59375 80.835938 358.117188 80.484375 C 358.636719 80.136719 359.171875 79.816406 359.726562 79.519531 C 360.277344 79.222656 360.84375 78.957031 361.425781 78.714844 C 362.003906 78.476562 362.59375 78.265625 363.191406 78.082031 C 363.792969 77.902344 364.398438 77.75 365.011719 77.625 C 365.628906 77.503906 366.246094 77.410156 366.871094 77.351562 C 367.496094 77.289062 368.121094 77.257812 368.746094 77.257812 C 369.371094 77.257812 369.996094 77.289062 370.621094 77.351562 C 371.246094 77.410156 371.863281 77.503906 372.480469 77.625 C 373.09375 77.75 373.699219 77.902344 374.300781 78.082031 C 374.898438 78.265625 375.488281 78.476562 376.070312 78.714844 C 376.648438 78.957031 377.214844 79.222656 377.765625 79.519531 C 378.320312 79.816406 378.855469 80.136719 379.375 80.484375 C 379.898438 80.835938 380.398438 81.207031 380.882812 81.605469 C 381.367188 82.003906 381.832031 82.425781 382.277344 82.867188 C 382.71875 83.3125 383.140625 83.777344 383.535156 84.261719 C 383.933594 84.746094 384.308594 85.25 384.65625 85.769531 C 385.003906 86.292969 385.324219 86.828125 385.621094 87.382812 C 385.917969 87.9375 386.183594 88.503906 386.421875 89.082031 C 386.664062 89.660156 386.875 90.25 387.054688 90.851562 C 387.238281 91.453125 387.390625 92.058594 387.511719 92.675781 C 387.636719 93.289062 387.726562 93.910156 387.789062 94.535156 C 387.847656 95.160156 387.878906 95.785156 387.878906 96.410156 Z M 387.878906 96.410156 " fill-opacity="0.78" fill-rule="nonzero"/></g><path fill="#009444" d="M 409.171875 61.316406 C 409.757812 61.316406 410.339844 61.289062 410.921875 61.230469 C 411.507812 61.175781 412.085938 61.089844 412.65625 60.976562 C 413.230469 60.863281 413.800781 60.71875 414.359375 60.550781 C 414.917969 60.382812 415.46875 60.183594 416.011719 59.960938 C 416.550781 59.738281 417.078125 59.488281 417.597656 59.210938 C 418.113281 58.933594 418.613281 58.636719 419.101562 58.308594 C 419.585938 57.984375 420.058594 57.636719 420.507812 57.265625 C 420.960938 56.894531 421.394531 56.5 421.808594 56.085938 C 422.222656 55.671875 422.617188 55.242188 422.988281 54.789062 C 423.359375 54.335938 423.707031 53.867188 424.03125 53.378906 C 424.359375 52.890625 424.660156 52.390625 424.933594 51.875 C 425.210938 51.355469 425.460938 50.828125 425.6875 50.289062 C 425.910156 49.746094 426.109375 49.195312 426.277344 48.636719 C 426.449219 48.074219 426.589844 47.507812 426.703125 46.933594 C 426.820312 46.359375 426.90625 45.78125 426.960938 45.195312 C 427.019531 44.613281 427.050781 44.03125 427.050781 43.445312 C 427.050781 42.859375 427.023438 42.273438 426.964844 41.691406 C 426.90625 41.109375 426.820312 40.527344 426.707031 39.953125 C 426.59375 39.378906 426.453125 38.8125 426.28125 38.25 C 426.113281 37.691406 425.917969 37.140625 425.691406 36.597656 C 425.46875 36.058594 425.21875 35.527344 424.945312 35.011719 C 424.667969 34.496094 424.367188 33.992188 424.042969 33.507812 C 423.71875 33.019531 423.371094 32.546875 423 32.097656 C 422.628906 31.644531 422.234375 31.210938 421.824219 30.792969 C 421.410156 30.378906 420.976562 29.988281 420.523438 29.617188 C 420.070312 29.242188 419.601562 28.894531 419.117188 28.570312 C 418.628906 28.242188 418.128906 27.941406 417.613281 27.667969 C 417.097656 27.390625 416.566406 27.140625 416.027344 26.914062 C 415.488281 26.691406 414.9375 26.496094 414.375 26.324219 C 413.816406 26.152344 413.25 26.011719 412.675781 25.898438 C 412.101562 25.78125 411.523438 25.695312 410.941406 25.640625 C 410.359375 25.582031 409.777344 25.550781 409.191406 25.550781 C 408.605469 25.550781 408.023438 25.582031 407.4375 25.636719 C 406.855469 25.695312 406.277344 25.78125 405.703125 25.894531 C 405.128906 26.007812 404.5625 26.152344 404.003906 26.320312 C 403.445312 26.492188 402.894531 26.6875 402.351562 26.914062 C 401.8125 27.136719 401.285156 27.386719 400.769531 27.664062 C 400.25 27.9375 399.75 28.238281 399.261719 28.566406 C 398.777344 28.890625 398.308594 29.238281 397.855469 29.609375 C 397.402344 29.980469 396.96875 30.375 396.554688 30.789062 C 396.140625 31.203125 395.75 31.636719 395.378906 32.089844 C 395.007812 32.542969 394.660156 33.011719 394.332031 33.5 C 394.007812 33.984375 393.707031 34.488281 393.433594 35.003906 C 393.15625 35.519531 392.90625 36.050781 392.683594 36.589844 C 392.457031 37.132812 392.261719 37.683594 392.089844 38.242188 C 391.921875 38.804688 391.78125 39.371094 391.664062 39.945312 C 391.550781 40.519531 391.464844 41.097656 391.40625 41.683594 C 391.351562 42.265625 391.320312 42.847656 391.320312 43.433594 C 391.324219 44.019531 391.351562 44.605469 391.410156 45.1875 C 391.46875 45.769531 391.554688 46.347656 391.667969 46.917969 C 391.785156 47.492188 391.925781 48.058594 392.097656 48.621094 C 392.265625 49.179688 392.464844 49.730469 392.6875 50.269531 C 392.910156 50.8125 393.160156 51.339844 393.4375 51.855469 C 393.714844 52.371094 394.011719 52.871094 394.339844 53.359375 C 394.664062 53.84375 395.011719 54.316406 395.382812 54.765625 C 395.753906 55.21875 396.144531 55.652344 396.558594 56.066406 C 396.96875 56.480469 397.402344 56.875 397.855469 57.246094 C 398.304688 57.617188 398.773438 57.964844 399.261719 58.289062 C 399.746094 58.617188 400.246094 58.917969 400.761719 59.191406 C 401.277344 59.46875 401.804688 59.71875 402.34375 59.945312 C 402.882812 60.167969 403.433594 60.367188 403.992188 60.539062 C 404.550781 60.707031 405.117188 60.851562 405.691406 60.964844 C 406.265625 61.082031 406.839844 61.167969 407.421875 61.226562 C 408.003906 61.285156 408.585938 61.316406 409.171875 61.316406 Z M 409.171875 61.316406 " fill-opacity="0.78" fill-rule="evenodd"/><path fill="#56ba48" d="M 415.234375 105.886719 C 416.011719 105.886719 416.777344 105.808594 417.539062 105.660156 C 418.296875 105.507812 419.035156 105.285156 419.75 104.988281 C 420.46875 104.691406 421.148438 104.324219 421.792969 103.894531 C 422.4375 103.464844 423.03125 102.976562 423.578125 102.425781 C 424.128906 101.878906 424.617188 101.28125 425.046875 100.636719 C 425.476562 99.992188 425.839844 99.3125 426.136719 98.59375 C 426.433594 97.878906 426.660156 97.140625 426.808594 96.378906 C 426.960938 95.617188 427.035156 94.847656 427.035156 94.074219 C 427.035156 93.296875 426.960938 92.53125 426.808594 91.769531 C 426.660156 91.007812 426.433594 90.269531 426.136719 89.554688 C 425.839844 88.835938 425.476562 88.15625 425.046875 87.511719 C 424.617188 86.867188 424.128906 86.269531 423.578125 85.722656 C 423.03125 85.171875 422.4375 84.683594 421.792969 84.253906 C 421.148438 83.820312 420.46875 83.457031 419.75 83.160156 C 419.035156 82.863281 418.296875 82.640625 417.539062 82.488281 C 416.777344 82.335938 416.011719 82.261719 415.234375 82.261719 C 414.460938 82.261719 413.695312 82.335938 412.933594 82.488281 C 412.175781 82.640625 411.4375 82.863281 410.71875 83.160156 C 410.003906 83.457031 409.324219 83.820312 408.679688 84.253906 C 408.035156 84.683594 407.441406 85.171875 406.890625 85.722656 C 406.34375 86.269531 405.855469 86.867188 405.425781 87.511719 C 404.996094 88.15625 404.628906 88.835938 404.335938 89.554688 C 404.039062 90.269531 403.8125 91.007812 403.664062 91.769531 C 403.511719 92.53125 403.4375 93.296875 403.4375 94.074219 C 403.4375 94.847656 403.515625 95.617188 403.667969 96.375 C 403.820312 97.136719 404.042969 97.875 404.339844 98.589844 C 404.640625 99.304688 405.003906 99.984375 405.433594 100.628906 C 405.863281 101.273438 406.351562 101.871094 406.898438 102.417969 C 407.449219 102.964844 408.042969 103.457031 408.6875 103.886719 C 409.332031 104.316406 410.007812 104.683594 410.726562 104.980469 C 411.441406 105.277344 412.175781 105.5 412.9375 105.65625 C 413.695312 105.808594 414.460938 105.882812 415.234375 105.886719 Z M 415.234375 105.886719 " fill-opacity="0.78" fill-rule="evenodd"/><g clip-path="url(#11d0869391)"><path fill="#fbad17" d="M 439.847656 30.773438 C 440.621094 30.773438 441.390625 30.699219 442.148438 30.546875 C 442.910156 30.398438 443.648438 30.171875 444.363281 29.875 C 445.078125 29.578125 445.757812 29.214844 446.402344 28.785156 C 447.046875 28.351562 447.644531 27.863281 448.191406 27.316406 C 448.738281 26.765625 449.226562 26.171875 449.65625 25.523438 C 450.089844 24.878906 450.453125 24.199219 450.75 23.484375 C 451.046875 22.765625 451.269531 22.027344 451.421875 21.265625 C 451.570312 20.507812 451.648438 19.738281 451.648438 18.960938 C 451.648438 18.1875 451.570312 17.417969 451.421875 16.660156 C 451.269531 15.898438 451.046875 15.160156 450.75 14.441406 C 450.453125 13.726562 450.089844 13.046875 449.65625 12.398438 C 449.226562 11.753906 448.738281 11.160156 448.191406 10.609375 C 447.644531 10.0625 447.046875 9.570312 446.402344 9.140625 C 445.757812 8.710938 445.078125 8.347656 444.363281 8.050781 C 443.648438 7.753906 442.910156 7.527344 442.148438 7.378906 C 441.390625 7.226562 440.621094 7.152344 439.847656 7.152344 C 439.070312 7.152344 438.304688 7.226562 437.542969 7.378906 C 436.785156 7.527344 436.046875 7.753906 435.332031 8.050781 C 434.617188 8.347656 433.933594 8.710938 433.292969 9.140625 C 432.648438 9.570312 432.050781 10.0625 431.503906 10.609375 C 430.953125 11.160156 430.464844 11.753906 430.035156 12.398438 C 429.605469 13.046875 429.242188 13.726562 428.945312 14.441406 C 428.648438 15.160156 428.425781 15.898438 428.273438 16.660156 C 428.121094 17.417969 428.046875 18.1875 428.046875 18.960938 C 428.046875 19.738281 428.125 20.503906 428.277344 21.265625 C 428.429688 22.023438 428.65625 22.761719 428.953125 23.480469 C 429.25 24.195312 429.613281 24.875 430.042969 25.519531 C 430.472656 26.164062 430.964844 26.757812 431.511719 27.308594 C 432.058594 27.855469 432.652344 28.34375 433.296875 28.777344 C 433.941406 29.207031 434.621094 29.570312 435.335938 29.867188 C 436.050781 30.164062 436.789062 30.390625 437.546875 30.542969 C 438.304688 30.695312 439.074219 30.773438 439.847656 30.773438 Z M 439.847656 30.773438 " fill-opacity="0.78" fill-rule="evenodd"/></g><path fill="#f15c22" d="M 367.367188 57.105469 C 367.953125 57.101562 368.53125 57.042969 369.105469 56.925781 C 369.679688 56.808594 370.238281 56.636719 370.777344 56.410156 C 371.320312 56.183594 371.832031 55.90625 372.316406 55.578125 C 372.804688 55.25 373.253906 54.878906 373.664062 54.464844 C 374.078125 54.046875 374.445312 53.59375 374.769531 53.105469 C 375.09375 52.617188 375.367188 52.101562 375.589844 51.558594 C 375.8125 51.015625 375.980469 50.457031 376.089844 49.882812 C 376.203125 49.304688 376.257812 48.722656 376.257812 48.136719 C 376.257812 47.550781 376.195312 46.96875 376.082031 46.394531 C 375.964844 45.820312 375.792969 45.261719 375.570312 44.722656 C 375.34375 44.179688 375.066406 43.667969 374.738281 43.179688 C 374.414062 42.691406 374.042969 42.242188 373.628906 41.828125 C 373.210938 41.414062 372.761719 41.046875 372.273438 40.71875 C 371.785156 40.394531 371.269531 40.121094 370.726562 39.898438 C 370.1875 39.675781 369.628906 39.507812 369.054688 39.394531 C 368.476562 39.28125 367.898438 39.222656 367.3125 39.222656 C 366.726562 39.226562 366.144531 39.28125 365.570312 39.398438 C 364.996094 39.511719 364.4375 39.683594 363.898438 39.910156 C 363.355469 40.132812 362.84375 40.410156 362.355469 40.734375 C 361.871094 41.0625 361.417969 41.433594 361.003906 41.847656 C 360.589844 42.261719 360.222656 42.714844 359.894531 43.203125 C 359.570312 43.691406 359.296875 44.203125 359.074219 44.746094 C 358.847656 45.289062 358.679688 45.847656 358.566406 46.421875 C 358.449219 46.996094 358.394531 47.578125 358.394531 48.164062 C 358.394531 48.753906 358.453125 49.335938 358.570312 49.914062 C 358.6875 50.488281 358.859375 51.050781 359.085938 51.59375 C 359.3125 52.136719 359.589844 52.652344 359.917969 53.140625 C 360.242188 53.628906 360.617188 54.078125 361.03125 54.492188 C 361.449219 54.910156 361.902344 55.28125 362.390625 55.605469 C 362.878906 55.929688 363.398438 56.207031 363.941406 56.429688 C 364.484375 56.652344 365.042969 56.824219 365.621094 56.9375 C 366.195312 57.050781 366.777344 57.105469 367.367188 57.105469 Z M 367.367188 57.105469 " fill-opacity="0.78" fill-rule="evenodd"/><path fill="#fbad17" d="M 579.683594 148.320312 C 579.683594 149.542969 579.65625 150.765625 579.59375 151.988281 C 579.535156 153.210938 579.445312 154.429688 579.324219 155.644531 C 579.207031 156.863281 579.058594 158.074219 578.878906 159.285156 C 578.699219 160.496094 578.488281 161.699219 578.25 162.898438 C 578.011719 164.097656 577.746094 165.289062 577.449219 166.476562 C 577.152344 167.664062 576.824219 168.839844 576.472656 170.011719 C 576.117188 171.179688 575.734375 172.339844 575.320312 173.492188 C 574.910156 174.644531 574.472656 175.785156 574.003906 176.914062 C 573.535156 178.042969 573.042969 179.160156 572.519531 180.265625 C 571.996094 181.371094 571.449219 182.464844 570.871094 183.542969 C 570.296875 184.621094 569.695312 185.683594 569.066406 186.734375 C 568.4375 187.78125 567.785156 188.816406 567.105469 189.832031 C 566.429688 190.847656 565.726562 191.847656 564.996094 192.828125 C 564.269531 193.8125 563.519531 194.773438 562.742188 195.71875 C 561.96875 196.664062 561.171875 197.589844 560.351562 198.496094 C 559.53125 199.402344 558.6875 200.289062 557.824219 201.152344 C 556.960938 202.019531 556.078125 202.859375 555.171875 203.683594 C 554.265625 204.503906 553.339844 205.300781 552.398438 206.078125 C 551.453125 206.851562 550.492188 207.605469 549.507812 208.332031 C 548.527344 209.0625 547.53125 209.765625 546.515625 210.445312 C 545.5 211.125 544.464844 211.777344 543.417969 212.40625 C 542.371094 213.035156 541.308594 213.636719 540.230469 214.214844 C 539.152344 214.789062 538.0625 215.339844 536.960938 215.863281 C 535.855469 216.386719 534.738281 216.882812 533.609375 217.347656 C 532.480469 217.816406 531.34375 218.257812 530.191406 218.667969 C 529.042969 219.082031 527.882812 219.464844 526.714844 219.820312 C 525.542969 220.175781 524.367188 220.5 523.183594 220.796875 C 521.996094 221.09375 520.804688 221.363281 519.609375 221.601562 C 518.410156 221.839844 517.207031 222.046875 516 222.226562 C 514.789062 222.40625 513.578125 222.558594 512.363281 222.675781 C 511.148438 222.796875 509.929688 222.886719 508.710938 222.945312 C 507.488281 223.007812 506.269531 223.035156 505.046875 223.035156 C 503.824219 223.035156 502.605469 223.007812 501.386719 222.945312 C 500.164062 222.886719 498.945312 222.796875 497.730469 222.675781 C 496.515625 222.558594 495.304688 222.40625 494.097656 222.226562 C 492.886719 222.046875 491.683594 221.839844 490.484375 221.601562 C 489.289062 221.363281 488.097656 221.09375 486.910156 220.796875 C 485.726562 220.5 484.550781 220.175781 483.382812 219.820312 C 482.210938 219.464844 481.054688 219.082031 479.902344 218.667969 C 478.753906 218.257812 477.613281 217.816406 476.484375 217.347656 C 475.355469 216.882812 474.238281 216.386719 473.136719 215.863281 C 472.03125 215.339844 470.941406 214.789062 469.863281 214.214844 C 468.785156 213.636719 467.722656 213.035156 466.675781 212.40625 C 465.628906 211.777344 464.597656 211.125 463.582031 210.445312 C 462.566406 209.765625 461.566406 209.0625 460.585938 208.332031 C 459.605469 207.605469 458.640625 206.851562 457.699219 206.078125 C 456.753906 205.300781 455.828125 204.503906 454.921875 203.683594 C 454.019531 202.859375 453.132812 202.019531 452.269531 201.152344 C 451.40625 200.289062 450.566406 199.402344 449.746094 198.496094 C 448.925781 197.589844 448.125 196.664062 447.351562 195.71875 C 446.578125 194.773438 445.824219 193.8125 445.097656 192.828125 C 444.371094 191.847656 443.667969 190.847656 442.988281 189.832031 C 442.308594 188.816406 441.65625 187.78125 441.027344 186.734375 C 440.398438 185.683594 439.796875 184.621094 439.222656 183.542969 C 438.648438 182.464844 438.097656 181.371094 437.574219 180.265625 C 437.054688 179.160156 436.558594 178.042969 436.089844 176.914062 C 435.625 175.785156 435.183594 174.644531 434.773438 173.492188 C 434.359375 172.339844 433.976562 171.179688 433.625 170.011719 C 433.269531 168.839844 432.941406 167.664062 432.644531 166.476562 C 432.347656 165.289062 432.082031 164.097656 431.84375 162.898438 C 431.605469 161.699219 431.398438 160.496094 431.21875 159.285156 C 431.039062 158.074219 430.886719 156.863281 430.769531 155.644531 C 430.648438 154.429688 430.558594 153.210938 430.5 151.988281 C 430.441406 150.765625 430.410156 149.542969 430.410156 148.320312 C 430.410156 147.097656 430.441406 145.878906 430.5 144.65625 C 430.558594 143.433594 430.648438 142.214844 430.769531 141 C 430.886719 139.78125 431.039062 138.570312 431.21875 137.359375 C 431.398438 136.148438 431.605469 134.945312 431.84375 133.746094 C 432.082031 132.546875 432.347656 131.355469 432.644531 130.167969 C 432.941406 128.980469 433.269531 127.804688 433.625 126.632812 C 433.976562 125.464844 434.359375 124.304688 434.773438 123.152344 C 435.183594 122 435.625 120.859375 436.089844 119.730469 C 436.558594 118.601562 437.054688 117.484375 437.574219 116.378906 C 438.097656 115.273438 438.648438 114.179688 439.222656 113.101562 C 439.796875 112.023438 440.398438 110.960938 441.027344 109.910156 C 441.65625 108.863281 442.308594 107.828125 442.988281 106.8125 C 443.667969 105.796875 444.371094 104.796875 445.097656 103.816406 C 445.824219 102.832031 446.578125 101.867188 447.351562 100.921875 C 448.125 99.976562 448.925781 99.054688 449.746094 98.148438 C 450.566406 97.242188 451.40625 96.355469 452.269531 95.492188 C 453.132812 94.625 454.019531 93.785156 454.921875 92.960938 C 455.828125 92.140625 456.753906 91.34375 457.699219 90.566406 C 458.640625 89.792969 459.605469 89.039062 460.585938 88.3125 C 461.566406 87.582031 462.566406 86.878906 463.582031 86.199219 C 464.597656 85.519531 465.628906 84.867188 466.675781 84.238281 C 467.722656 83.609375 468.785156 83.007812 469.863281 82.429688 C 470.941406 81.851562 472.03125 81.304688 473.136719 80.78125 C 474.238281 80.257812 475.355469 79.761719 476.484375 79.292969 C 477.613281 78.828125 478.753906 78.386719 479.902344 77.976562 C 481.054688 77.5625 482.210938 77.179688 483.382812 76.824219 C 484.550781 76.46875 485.726562 76.144531 486.910156 75.847656 C 488.097656 75.550781 489.289062 75.28125 490.484375 75.042969 C 491.683594 74.804688 492.886719 74.59375 494.097656 74.417969 C 495.304688 74.238281 496.515625 74.085938 497.730469 73.96875 C 498.945312 73.847656 500.164062 73.757812 501.386719 73.699219 C 502.605469 73.636719 503.824219 73.609375 505.046875 73.609375 C 506.269531 73.609375 507.488281 73.636719 508.710938 73.699219 C 509.929688 73.757812 511.148438 73.847656 512.363281 73.96875 C 513.578125 74.085938 514.789062 74.238281 516 74.417969 C 517.207031 74.59375 518.410156 74.804688 519.609375 75.042969 C 520.804688 75.28125 521.996094 75.550781 523.183594 75.847656 C 524.367188 76.144531 525.542969 76.46875 526.714844 76.824219 C 527.882812 77.179688 529.042969 77.5625 530.191406 77.976562 C 531.34375 78.386719 532.480469 78.828125 533.609375 79.292969 C 534.738281 79.761719 535.855469 80.257812 536.960938 80.78125 C 538.0625 81.304688 539.152344 81.851562 540.230469 82.429688 C 541.308594 83.007812 542.371094 83.609375 543.417969 84.238281 C 544.464844 84.867188 545.5 85.519531 546.515625 86.199219 C 547.53125 86.878906 548.527344 87.582031 549.507812 88.3125 C 550.492188 89.039062 551.453125 89.792969 552.398438 90.566406 C 553.339844 91.34375 554.265625 92.140625 555.171875 92.960938 C 556.078125 93.785156 556.960938 94.625 557.824219 95.492188 C 558.6875 96.355469 559.53125 97.242188 560.351562 98.148438 C 561.171875 99.054688 561.96875 99.976562 562.742188 100.921875 C 563.519531 101.867188 564.269531 102.832031 564.996094 103.816406 C 565.726562 104.796875 566.429688 105.796875 567.105469 106.8125 C 567.785156 107.828125 568.4375 108.863281 569.066406 109.910156 C 569.695312 110.960938 570.296875 112.023438 570.871094 113.101562 C 571.449219 114.179688 571.996094 115.273438 572.519531 116.378906 C 573.042969 117.484375 573.535156 118.601562 574.003906 119.730469 C 574.472656 120.859375 574.910156 122 575.320312 123.152344 C 575.734375 124.304688 576.117188 125.464844 576.472656 126.632812 C 576.824219 127.804688 577.152344 128.980469 577.449219 130.167969 C 577.746094 131.355469 578.011719 132.546875 578.25 133.746094 C 578.488281 134.945312 578.699219 136.148438 578.878906 137.359375 C 579.058594 138.570312 579.207031 139.78125 579.324219 141 C 579.445312 142.214844 579.535156 143.433594 579.59375 144.65625 C 579.65625 145.878906 579.683594 147.097656 579.683594 148.320312 Z M 579.683594 148.320312 " fill-opacity="0.78" fill-rule="nonzero"/><path fill="#ec008b" d="M 546.277344 35.230469 C 582.046875 42.613281 612.011719 60.550781 629.683594 86.347656 C 629.535156 87.441406 629.347656 88.527344 629.128906 89.609375 C 628.910156 90.691406 628.65625 91.761719 628.371094 92.828125 C 628.085938 93.894531 627.769531 94.949219 627.417969 95.996094 C 627.066406 97.039062 626.683594 98.074219 626.269531 99.09375 C 625.855469 100.117188 625.410156 101.125 624.933594 102.121094 C 624.457031 103.113281 623.949219 104.089844 623.410156 105.054688 C 622.875 106.015625 622.304688 106.960938 621.710938 107.890625 C 621.113281 108.816406 620.488281 109.726562 619.835938 110.613281 C 619.183594 111.503906 618.507812 112.371094 617.800781 113.21875 C 617.09375 114.0625 616.363281 114.886719 615.605469 115.6875 C 614.847656 116.492188 614.066406 117.265625 613.261719 118.019531 C 612.457031 118.773438 611.628906 119.5 610.777344 120.203125 C 609.929688 120.902344 609.058594 121.578125 608.167969 122.226562 C 607.273438 122.871094 606.363281 123.492188 605.433594 124.082031 C 604.503906 124.675781 603.554688 125.234375 602.589844 125.769531 C 601.625 126.300781 600.644531 126.800781 599.648438 127.273438 C 598.652344 127.746094 597.644531 128.183594 596.621094 128.59375 C 595.597656 129.003906 594.5625 129.378906 593.515625 129.722656 C 592.46875 130.066406 591.414062 130.378906 590.347656 130.660156 C 589.28125 130.9375 588.207031 131.183594 587.125 131.394531 C 586.042969 131.609375 584.957031 131.789062 583.867188 131.933594 C 582.773438 132.078125 581.679688 132.1875 580.578125 132.265625 C 579.480469 132.34375 578.378906 132.386719 577.277344 132.394531 C 576.175781 132.402344 575.074219 132.378906 573.976562 132.320312 C 572.875 132.261719 571.777344 132.167969 570.683594 132.039062 C 569.589844 131.910156 568.5 131.75 567.414062 131.554688 C 566.332031 131.359375 565.253906 131.132812 564.183594 130.871094 C 563.113281 130.609375 562.050781 130.3125 561 129.984375 C 559.949219 129.660156 558.90625 129.296875 557.878906 128.90625 C 556.847656 128.515625 555.832031 128.089844 554.828125 127.636719 C 553.824219 127.179688 552.835938 126.695312 551.863281 126.175781 C 550.886719 125.660156 549.933594 125.113281 548.992188 124.539062 C 548.054688 123.964844 547.132812 123.359375 546.230469 122.726562 C 545.328125 122.09375 544.445312 121.433594 543.585938 120.746094 C 542.722656 120.058594 541.882812 119.34375 541.066406 118.601562 C 540.25 117.863281 539.457031 117.097656 538.6875 116.308594 C 537.917969 115.519531 537.171875 114.710938 536.453125 113.875 C 535.730469 113.039062 535.039062 112.183594 534.371094 111.304688 C 533.707031 110.425781 533.066406 109.527344 532.457031 108.609375 C 531.84375 107.691406 531.261719 106.757812 530.710938 105.804688 C 530.15625 104.847656 529.632812 103.878906 529.140625 102.894531 C 528.648438 101.90625 528.1875 100.90625 527.753906 99.890625 C 527.324219 98.875 526.925781 97.847656 526.558594 96.808594 C 526.191406 95.769531 525.855469 94.71875 525.550781 93.660156 C 525.25 92.597656 524.980469 91.53125 524.742188 90.453125 C 524.507812 89.375 524.304688 88.292969 524.136719 87.203125 C 523.964844 86.113281 523.832031 85.019531 523.730469 83.921875 C 523.628906 82.820312 523.558594 81.722656 523.527344 80.621094 C 523.492188 79.515625 523.492188 78.414062 523.527344 77.3125 C 523.5625 76.210938 523.632812 75.109375 523.734375 74.011719 C 523.835938 72.914062 523.972656 71.820312 524.144531 70.730469 C 524.316406 69.640625 524.519531 68.558594 524.757812 67.480469 C 524.996094 66.402344 525.265625 65.335938 525.570312 64.273438 C 525.871094 63.214844 526.207031 62.164062 526.578125 61.125 C 526.945312 60.085938 527.347656 59.058594 527.777344 58.046875 C 528.210938 57.03125 528.675781 56.03125 529.167969 55.042969 C 529.664062 54.058594 530.1875 53.089844 530.742188 52.136719 C 531.292969 51.183594 531.878906 50.25 532.488281 49.332031 C 533.101562 48.414062 533.742188 47.515625 534.410156 46.640625 C 535.078125 45.761719 535.769531 44.90625 536.492188 44.070312 C 537.210938 43.238281 537.957031 42.425781 538.726562 41.636719 C 539.5 40.851562 540.292969 40.085938 541.113281 39.347656 C 541.929688 38.609375 542.769531 37.898438 543.632812 37.210938 C 544.492188 36.523438 545.375 35.863281 546.277344 35.230469 Z M 546.277344 35.230469 " fill-opacity="0.78" fill-rule="evenodd"/><path fill="#56ba48" d="M 479.917969 115.578125 C 481.382812 115.578125 482.84375 115.507812 484.300781 115.363281 C 485.757812 115.222656 487.203125 115.007812 488.640625 114.722656 C 490.074219 114.4375 491.492188 114.082031 492.894531 113.65625 C 494.296875 113.230469 495.671875 112.738281 497.027344 112.175781 C 498.378906 111.617188 499.699219 110.992188 500.992188 110.300781 C 502.285156 109.609375 503.539062 108.859375 504.757812 108.042969 C 505.972656 107.230469 507.148438 106.359375 508.28125 105.429688 C 509.414062 104.5 510.496094 103.515625 511.53125 102.480469 C 512.566406 101.445312 513.550781 100.359375 514.476562 99.226562 C 515.40625 98.09375 516.277344 96.917969 517.09375 95.703125 C 517.90625 94.484375 518.660156 93.226562 519.347656 91.933594 C 520.039062 90.644531 520.664062 89.320312 521.226562 87.964844 C 521.785156 86.613281 522.277344 85.234375 522.703125 83.832031 C 523.128906 82.429688 523.484375 81.007812 523.769531 79.570312 C 524.058594 78.132812 524.273438 76.6875 524.414062 75.226562 C 524.558594 73.769531 524.632812 72.308594 524.632812 70.839844 C 524.632812 69.375 524.5625 67.914062 524.417969 66.457031 C 524.273438 64.996094 524.058594 63.546875 523.773438 62.109375 C 523.488281 60.671875 523.132812 59.253906 522.710938 57.851562 C 522.285156 56.449219 521.792969 55.070312 521.234375 53.714844 C 520.671875 52.363281 520.046875 51.039062 519.359375 49.746094 C 518.667969 48.453125 517.917969 47.195312 517.101562 45.980469 C 516.289062 44.761719 515.417969 43.582031 514.488281 42.449219 C 513.5625 41.316406 512.578125 40.234375 511.542969 39.195312 C 510.507812 38.160156 509.425781 37.175781 508.292969 36.246094 C 507.164062 35.316406 505.988281 34.445312 504.769531 33.628906 C 503.554688 32.816406 502.300781 32.0625 501.007812 31.371094 C 499.71875 30.679688 498.394531 30.054688 497.042969 29.492188 C 495.691406 28.933594 494.3125 28.441406 492.914062 28.015625 C 491.511719 27.589844 490.09375 27.234375 488.65625 26.945312 C 487.222656 26.660156 485.773438 26.445312 484.316406 26.300781 C 482.859375 26.15625 481.398438 26.085938 479.9375 26.085938 C 478.472656 26.085938 477.011719 26.15625 475.554688 26.300781 C 474.097656 26.445312 472.652344 26.660156 471.214844 26.945312 C 469.777344 27.230469 468.359375 27.585938 466.957031 28.011719 C 465.558594 28.4375 464.179688 28.929688 462.828125 29.492188 C 461.476562 30.050781 460.152344 30.675781 458.863281 31.367188 C 457.570312 32.058594 456.316406 32.8125 455.097656 33.625 C 453.882812 34.4375 452.707031 35.3125 451.574219 36.242188 C 450.445312 37.171875 449.359375 38.152344 448.324219 39.191406 C 447.289062 40.226562 446.308594 41.3125 445.378906 42.445312 C 444.449219 43.578125 443.578125 44.753906 442.765625 45.972656 C 441.953125 47.191406 441.199219 48.445312 440.507812 49.738281 C 439.820312 51.03125 439.195312 52.351562 438.632812 53.707031 C 438.074219 55.0625 437.582031 56.441406 437.15625 57.84375 C 436.730469 59.246094 436.375 60.664062 436.089844 62.101562 C 435.804688 63.539062 435.589844 64.988281 435.445312 66.445312 C 435.300781 67.90625 435.230469 69.367188 435.230469 70.832031 C 435.234375 72.296875 435.308594 73.757812 435.453125 75.214844 C 435.597656 76.671875 435.816406 78.117188 436.101562 79.554688 C 436.390625 80.992188 436.746094 82.410156 437.171875 83.808594 C 437.597656 85.210938 438.09375 86.585938 438.652344 87.941406 C 439.214844 89.292969 439.839844 90.613281 440.53125 91.90625 C 441.222656 93.195312 441.972656 94.453125 442.785156 95.667969 C 443.597656 96.886719 444.46875 98.0625 445.398438 99.191406 C 446.328125 100.324219 447.308594 101.410156 448.34375 102.445312 C 449.375 103.480469 450.460938 104.460938 451.589844 105.390625 C 452.71875 106.320312 453.894531 107.195312 455.109375 108.007812 C 456.324219 108.824219 457.578125 109.574219 458.867188 110.265625 C 460.15625 110.957031 461.476562 111.585938 462.828125 112.148438 C 464.179688 112.710938 465.554688 113.203125 466.953125 113.628906 C 468.351562 114.058594 469.769531 114.414062 471.203125 114.703125 C 472.640625 114.992188 474.085938 115.207031 475.539062 115.355469 C 476.996094 115.5 478.453125 115.574219 479.917969 115.578125 Z M 479.917969 115.578125 " fill-opacity="0.78" fill-rule="evenodd"/><g fill="#000000" fill-opacity="1"><g transform="translate(139.805309, 540.814814)"><g><path d="M 113.546875 -95.328125 L 44.03125 -95.328125 L 44.03125 -82.484375 L 113.546875 -82.484375 Z M 13.5625 -42.375 C 16.421875 -51.53125 18.5625 -65.703125 18.921875 -76.046875 L 8.21875 -77.484375 C 7.375 -67.484375 5.359375 -54.265625 2.5 -46.296875 Z M 62.484375 -38.921875 L 92.953125 -38.921875 L 92.953125 -27.734375 L 62.484375 -27.734375 Z M 62.484375 -61.296875 L 92.953125 -61.296875 L 92.953125 -50.21875 L 62.484375 -50.21875 Z M 48.796875 -60.21875 L 48.796875 -15.46875 L 107.359375 -15.46875 L 107.359375 -73.546875 L 48.796875 -73.546875 L 48.796875 -61.40625 C 47.015625 -66.765625 43.4375 -75.09375 40.578125 -81.28125 L 32.96875 -78.078125 L 32.96875 -100.921875 L 19.28125 -100.921875 L 19.28125 10.359375 L 32.96875 10.359375 L 32.96875 -71.640625 C 35.34375 -65.8125 37.609375 -59.515625 38.6875 -55.21875 Z M 41.0625 -7.734375 L 41.0625 5.359375 L 114.84375 5.359375 L 114.84375 -7.734375 Z M 41.0625 -7.734375 "/></g></g></g><g fill="#000000" fill-opacity="1"><g transform="translate(264.875612, 540.814814)"><g><path d="M 68.671875 -62 L 39.390625 -62 L 39.390625 -48.671875 L 112.953125 -48.671875 L 112.953125 -62 L 83.078125 -62 L 83.078125 -74.390625 L 107.59375 -74.390625 L 107.59375 -87.59375 L 83.078125 -87.59375 L 83.078125 -100.8125 L 68.671875 -100.8125 L 68.671875 -87.59375 L 44.875 -87.59375 L 44.875 -74.390625 L 68.671875 -74.390625 Z M 28.921875 -100.328125 C 23.203125 -83.3125 13.203125 -66.53125 2.734375 -55.8125 C 5.125 -52.359375 9.046875 -44.625 10.359375 -41.296875 C 12.609375 -43.796875 15 -46.53125 17.25 -49.625 L 17.25 10.359375 L 31.296875 10.359375 L 31.296875 -71.765625 C 35.578125 -79.734375 39.28125 -88.078125 42.25 -96.171875 Z M 83.078125 -7.015625 L 83.078125 -21.296875 L 109.96875 -21.296875 L 109.96875 -34.75 L 83.078125 -34.75 L 83.078125 -45.21875 L 68.671875 -45.21875 L 68.671875 -34.75 L 42.484375 -34.75 L 42.484375 -21.296875 L 68.671875 -21.296875 L 68.671875 -7.015625 L 35.9375 -7.015625 L 35.9375 6.546875 L 115.09375 6.546875 L 115.09375 -7.015625 Z M 83.078125 -7.015625 "/></g></g></g><g fill="#000000" fill-opacity="1"><g transform="translate(389.945916, 540.814814)"><g><path d="M 48.4375 -40.578125 C 46.53125 -44.03125 37.84375 -57.71875 34.390625 -62.125 L 34.390625 -65.578125 L 47.96875 -65.578125 L 47.96875 -78.671875 L 34.390625 -78.671875 L 34.390625 -100.8125 L 20.59375 -100.8125 L 20.59375 -78.671875 L 5.125 -78.671875 L 5.125 -65.578125 L 19.75 -65.578125 C 16.3125 -51.296875 9.875 -34.515625 2.734375 -25.34375 C 5 -21.546875 8.09375 -15.109375 9.40625 -11.0625 C 13.5625 -17.25 17.375 -26.0625 20.59375 -35.9375 L 20.59375 10.234375 L 34.390625 10.234375 L 34.390625 -44.515625 C 36.78125 -39.515625 39.03125 -34.390625 40.34375 -31.0625 Z M 114.140625 -38.4375 L 114.140625 -51.171875 L 88.90625 -51.171875 L 88.90625 -67.484375 L 111.15625 -67.484375 L 111.15625 -80.21875 L 88.90625 -80.21875 L 88.90625 -100.6875 L 74.984375 -100.6875 L 74.984375 -80.21875 L 67.59375 -80.21875 C 68.546875 -84.265625 69.265625 -88.421875 69.984375 -92.71875 L 57.015625 -94.96875 C 55.21875 -81.640625 51.765625 -68.4375 45.828125 -60.109375 C 48.921875 -58.5625 54.515625 -55.109375 56.890625 -53.078125 C 59.515625 -57.015625 61.890625 -62 63.90625 -67.484375 L 74.984375 -67.484375 L 74.984375 -51.171875 L 48.921875 -51.171875 L 48.921875 -38.4375 L 68.546875 -38.4375 C 62.359375 -25.234375 52.25 -12.734375 41.0625 -5.953125 C 44.03125 -3.328125 48.4375 1.671875 50.578125 4.875 C 60.109375 -2.015625 68.4375 -12.734375 74.984375 -25 L 74.984375 10.234375 L 88.90625 10.234375 L 88.90625 -26.0625 C 93.90625 -14.15625 100.328125 -3.09375 107.234375 4.046875 C 109.5 0.59375 114.25 -4.40625 117.46875 -7.015625 C 109.015625 -14.15625 100.6875 -26.296875 95.453125 -38.4375 Z M 114.140625 -38.4375 "/></g></g></g><g fill="#000000" fill-opacity="1"><g transform="translate(515.016228, 540.814814)"><g><path d="M 42.96875 -39.515625 L 62 -39.515625 L 62 -53.203125 L 10.953125 -53.203125 L 10.953125 -39.515625 L 28.921875 -39.515625 L 28.921875 -10.828125 C 20.359375 -9.40625 12.5 -8.21875 6.421875 -7.265625 L 10.359375 7.015625 C 25.703125 3.8125 46.65625 -0.59375 66.171875 -4.875 L 65.109375 -17.5 C 57.84375 -16.0625 50.21875 -14.640625 42.96875 -13.328125 Z M 112.828125 -66.765625 L 112.828125 -80.578125 L 101.640625 -80.578125 L 109.734375 -87.59375 C 106.515625 -91.515625 99.5 -97.109375 94.140625 -100.8125 L 84.734375 -93.0625 C 89.5 -89.5 95.453125 -84.625 98.65625 -80.578125 L 79.859375 -80.578125 C 79.625 -87 79.625 -93.671875 79.734375 -100.21875 L 64.5 -100.21875 C 64.5 -93.671875 64.625 -87 64.859375 -80.578125 L 6.421875 -80.578125 L 6.421875 -66.765625 L 65.578125 -66.765625 C 68.4375 -24.875 77.359375 10.359375 97.71875 10.359375 C 109.015625 10.359375 113.78125 4.875 115.921875 -17.609375 C 112 -19.046875 106.75 -22.609375 103.546875 -25.953125 C 102.953125 -10.828125 101.515625 -4.515625 99.015625 -4.515625 C 90.328125 -4.515625 83.078125 -32.015625 80.578125 -66.765625 Z M 112.828125 -66.765625 "/></g></g></g><g fill="#000000" fill-opacity="1"><g transform="translate(640.086519, 540.814814)"><g><path d="M 37.609375 -65.109375 C 46.65625 -72.125 54.265625 -79.859375 59.390625 -87.125 C 64.859375 -79.734375 73.078125 -72 82.234375 -65.109375 Z M 31.78125 -52.125 L 87.359375 -52.125 L 87.359375 -61.53125 C 93.90625 -57.015625 100.8125 -53.078125 107.359375 -49.984375 C 109.84375 -54.15625 112.953125 -59.265625 116.515625 -62.953125 C 97.71875 -69.625 78.78125 -83.1875 66.171875 -100.6875 L 51.421875 -100.6875 C 42.484375 -86.640625 23.6875 -69.75 3.328125 -60.8125 C 6.3125 -57.71875 10 -52.359375 11.65625 -48.921875 C 18.5625 -52.25 25.46875 -56.296875 31.78125 -60.8125 Z M 10.71875 -29.15625 L 38.328125 -29.15625 C 35.828125 -22.140625 32.484375 -14.28125 29.28125 -7.609375 L 11.3125 -7.015625 L 13.203125 6.78125 C 33.4375 5.828125 62.84375 4.640625 90.8125 3.09375 C 92.71875 5.71875 94.375 8.21875 95.5625 10.46875 L 108.78125 2.5 C 103.1875 -6.421875 92.125 -18.796875 81.53125 -28.09375 L 69.03125 -21.546875 C 72.953125 -17.96875 77 -13.6875 80.6875 -9.40625 C 68.546875 -8.921875 56.296875 -8.453125 44.875 -8.09375 C 48.4375 -14.765625 52.359375 -22.140625 55.8125 -29.15625 L 109.140625 -29.15625 L 109.140625 -42.25 L 10.71875 -42.25 Z M 10.71875 -29.15625 "/></g></g></g><g fill="#000000" fill-opacity="1"><g transform="translate(765.15681, 540.814814)"><g><path d="M 56.53125 -33.5625 C 54.03125 -35.9375 44.875 -44.15625 39.15625 -48.796875 C 44.875 -56.65625 49.625 -65.21875 53.203125 -74.265625 L 45.21875 -79.390625 L 42.734375 -78.78125 L 37.375 -78.78125 L 37.375 -100.6875 L 23.328125 -100.6875 L 23.328125 -78.78125 L 6.421875 -78.78125 L 6.421875 -66.046875 L 35.234375 -66.046875 C 27.375 -52.25 14.875 -39.75 1.90625 -32.734375 C 4.046875 -29.984375 7.375 -23.09375 8.5625 -19.28125 C 13.5625 -22.375 18.5625 -26.296875 23.328125 -30.703125 L 23.328125 10.359375 L 37.375 10.359375 L 37.375 -34.515625 C 41.421875 -30.109375 45.46875 -25.34375 47.96875 -22.015625 Z M 90.8125 -6.90625 L 90.8125 -50.46875 L 113.296875 -50.46875 L 113.296875 -64.15625 L 90.8125 -64.15625 L 90.8125 -99.734375 L 76.28125 -99.734375 L 76.28125 -64.15625 L 53.671875 -64.15625 L 53.671875 -50.46875 L 76.28125 -50.46875 L 76.28125 -6.90625 L 48.796875 -6.90625 L 48.796875 6.90625 L 116.15625 6.90625 L 116.15625 -6.90625 Z M 90.8125 -6.90625 "/></g></g></g></svg>